<svg xmlns="http://www.w3.org/2000/svg" width="312.323" height="193.691" viewBox="0 0 312.323 193.691">
  <path id="Path_37730" data-name="Path 37730" d="M267.64,75.649A43.62,43.62,0,0,0,205.2,38.232a51.2,51.2,0,0,0-90.921-17.04A51.288,51.288,0,0,0,40.158,67.07h0c-1.311-.119-2.741-.238-4.171-.238a35.809,35.809,0,1,0-.119,71.617,35.166,35.166,0,0,0,13.7-2.741,35.835,35.835,0,0,0,32.77,21.449,35.3,35.3,0,0,0,22.522-7.984,68.639,68.639,0,0,0,92.947,7.269,35.963,35.963,0,0,0,49.453-12.989,35.254,35.254,0,0,0,15.849,3.694,35.894,35.894,0,0,0,4.528-71.5Z" transform="translate(1.06 21.823) rotate(-4)" fill="#06aef4" stroke="#06b6ff" stroke-width="2"/>
</svg>
